<svg xmlns="http://www.w3.org/2000/svg" viewBox="0 0 37.6 37.6" >
<path d="M3.1,37.6c-1.7,0-3.1-1.4-3.1-3.1V3.1C0,1.4,1.4,0,3.1,0h19.1c0.8,0,1.6,0.3,2.2,0.9l3.2,3.2c0.6,0.6,0.9,1.4,0.9,2.2v9.4
	l3.7-3.7c1.2-1.2,3.2-1.3,4.4-0.1c1.2,1.2,1.3,3.2,0.1,4.4c0,0-0.1,0.1-0.1,0.1l-8.1,8.1v10c0,1.7-1.4,3.1-3.1,3.1L3.1,37.6z
	 M3.1,1.8c-0.7,0-1.3,0.6-1.3,1.3v31.3c0,0.7,0.6,1.3,1.3,1.3h22.3c0.7,0,1.3-0.6,1.3-1.3v-8.2l-0.5,0.5c-0.1,0.1-0.2,0.2-0.4,0.2
	l-4.7,1.6c-0.5,0.2-1-0.1-1.1-0.6c-0.1-0.2-0.1-0.4,0-0.6l1.6-4.7c0-0.1,0.1-0.3,0.2-0.4l1.6-1.6l0,0c0.1-0.1,0.5-0.5,3.3-3.3
	l0.1-0.1V8.5h-5.8c-0.5,0-0.9-0.4-0.9-0.9l0,0V1.8H3.1z M23.2,23.5l-0.9,2.8l2.8-0.9l0.8-0.8L24,22.7L23.2,23.5z M25.3,21.4l1.9,1.9
	l5.7-5.7l-1.9-1.9L25.3,21.4z M34.5,12.8c-0.4,0-0.7,0.1-0.9,0.4l-1.3,1.3l1.9,1.9l1.3-1.3c0.5-0.5,0.5-1.4,0-1.9
	C35.1,12.9,34.8,12.8,34.5,12.8L34.5,12.8z M21.8,6.7h4.9V6.4c0-0.4-0.1-0.8-0.4-1.1l-3.2-3.2c-0.3-0.3-0.6-0.4-1-0.4h-0.3V6.7z"/>
<path d="M6.4,11.9h15.6c0.5,0,0.9,0.4,0.9,0.9l0,0c0,0.5-0.4,0.9-0.9,0.9H6.4c-0.5,0-0.9-0.4-0.9-0.9l0,0C5.6,12.3,6,11.9,6.4,11.9z
	"/>
<path d="M6.4,17.4h15.6c0.5,0,0.9,0.4,0.9,0.9l0,0c0,0.5-0.4,0.9-0.9,0.9H6.4c-0.5,0-0.9-0.4-0.9-0.9l0,0C5.6,17.8,6,17.4,6.4,17.4z
	"/>
</svg>
