<?xml version="1.0" encoding="utf-8"?>
<!-- Generator: Adobe Illustrator 24.0.2, SVG Export Plug-In . SVG Version: 6.00 Build 0)  -->
<svg version="1.1" id="Слой_1" xmlns="http://www.w3.org/2000/svg" xmlns:xlink="http://www.w3.org/1999/xlink" x="0px" y="0px"
	 viewBox="0 0 146.1 48.5" style="enable-background:new 0 0 146.1 48.5;" xml:space="preserve">
<style type="text/css">
	.st0{fill:#CA0000;}
	.st1{fill:#004CBA;}
</style>
<path id="Контур_3231" class="st0" d="M17.9,28.6h-4.2l-1.5-4.5H5.8l-1.5,4.5H0.2l6.4-17.3h5.1L17.9,28.6z M11.2,21.3L9,14.8
	H8.9l-2.2,6.5H11.2z"/>
<path id="Контур_3232" class="st0" d="M34.5,22.1v2.7c0.1,1.3-0.6,2.5-1.7,3c-1.6,0.7-3.4,0.9-5.1,0.9h-7.2V11.3h7
	c2.4,0,4.1,0.3,5,0.8c0.9,0.7,1.4,1.8,1.3,2.9v2.1c0,0.5-0.2,1-0.6,1.4c-0.4,0.4-0.8,0.7-1.3,0.9v0.1c0.7,0.1,1.3,0.4,1.8,0.9
	C34.2,20.8,34.5,21.4,34.5,22.1z M29.8,16.6v-0.9c0.1-0.4-0.1-0.9-0.4-1.2c-0.6-0.3-1.3-0.4-2-0.3h-2.8v4.1h2.8
	c0.6,0.1,1.3-0.1,1.9-0.4C29.7,17.6,29.8,17.1,29.8,16.6L29.8,16.6z M30.4,24.2v-1.4c0.1-0.5-0.1-1-0.5-1.4
	c-0.5-0.3-1.1-0.5-1.7-0.4h-3.5v4.6h3c0.7,0,1.5-0.1,2.2-0.3C30.2,25.1,30.4,24.7,30.4,24.2L30.4,24.2z"/>
<path id="Контур_3233" class="st0" d="M51.5,14.3h-5.3v14.3h-4.2V14.3h-5.3v-3h14.8L51.5,14.3z"/>
<path id="Контур_3234" class="st0" d="M70.7,16.3v7.6c0,0.9-0.2,1.8-0.8,2.5c-0.5,0.7-1.3,1.2-2.1,1.6
	c-0.8,0.3-1.7,0.6-2.6,0.7c-0.9,0.1-1.8,0.2-2.8,0.2c-0.9,0-1.7-0.1-2.6-0.2c-0.9-0.1-1.7-0.4-2.6-0.7c-0.9-0.3-1.6-0.8-2.2-1.5
	c-0.6-0.8-0.8-1.7-0.8-2.6v-7.6c0-1.6,0.7-3,2-3.9c0.6-0.4,1.3-0.7,2-0.9c0.7-0.2,1.4-0.3,2.1-0.4c0.6-0.1,1.3-0.1,2-0.1
	c0.7,0,1.4,0,2,0.1c0.7,0.1,1.4,0.2,2.1,0.4c0.7,0.2,1.4,0.5,2.1,0.9c0.6,0.4,1.1,0.9,1.4,1.5C70.5,14.7,70.7,15.5,70.7,16.3z
	 M66.5,23.9v-7.6c0.1-0.7-0.4-1.4-1-1.8c-1-0.4-2-0.6-3-0.5c-1-0.1-2.1,0.1-3,0.5c-0.7,0.3-1.1,1-1,1.8v7.6c0,0.4,0.1,0.8,0.3,1.1
	c0.3,0.3,0.6,0.5,1,0.6c0.4,0.1,0.8,0.2,1.3,0.3c1,0.1,2,0.1,3,0c0.4,0,0.8-0.1,1.2-0.3c0.4-0.1,0.7-0.3,1-0.6
	C66.4,24.7,66.5,24.3,66.5,23.9L66.5,23.9z"/>
<path id="Контур_3235" class="st1" d="M87.2,21.9v2.8c0,2.7-2.3,4.1-6.9,4.1c-2.1,0-4.2-0.2-6.3-0.5v-3.2
	c1.9,0.4,3.9,0.6,5.8,0.7c0.8,0,1.7-0.1,2.5-0.4c0.5-0.3,0.8-0.6,0.8-1v-2c0-0.5-0.3-0.9-0.7-1c-0.8-0.2-1.7-0.3-2.5-0.3h-3.7v-3
	h3.7c0.7,0,1.4-0.1,2-0.3c0.4-0.2,0.6-0.6,0.6-1v-1.6c0-0.5-0.2-0.9-0.7-1.1C81,14.1,80.2,14,79.3,14c-0.2,0-1.9,0.1-5.1,0.3v-3
	c2.4-0.2,4.3-0.2,5.5-0.2c1.7-0.1,3.4,0.2,5,0.7c1.1,0.4,1.8,1.5,1.8,2.6v2.8c0,0.5-0.2,1-0.5,1.3c-0.3,0.3-0.7,0.6-1.2,0.7
	C86.4,19.9,87.2,20.8,87.2,21.9z"/>
<path id="Контур_3236" class="st1" d="M107.1,28.6H103v-7.4h-7.3v7.4h-4.2V11.3h4.2v6.9h7.3v-6.9h4.2V28.6z"/>
<path id="Контур_3237" class="st1" d="M127.4,28.6h-4.2l-1.5-4.5h-6.3l-1.5,4.5h-4.1l6.4-17.3h5.1L127.4,28.6z M120.8,21.3
	l-2.2-6.5h-0.1l-2.2,6.5H120.8z"/>
<path id="Контур_3238" class="st1" d="M130,28.6V11.3h4.1v6.9c0.5,0,1,0,1.4-0.2c0.3-0.2,0.6-0.5,0.8-0.8l1.8-3
	c0.8-2.1,3-3.3,5.1-2.9h1.9v3h-1.1c-0.6,0-1.2,0-1.7,0.2c-0.4,0.3-0.7,0.7-1,1.2l-1.1,1.7c-0.3,0.4-0.6,0.8-0.9,1.2
	c-0.3,0.3-0.7,0.5-1,0.6c0.7,0.2,1.3,0.6,1.7,1.1c0.8,0.8,1.6,1.7,2.2,2.7l3.8,5.6h-4.8l-3.3-5.1c-0.4-0.8-1-1.5-1.8-2
	c-0.7-0.3-1.4-0.5-2.1-0.4v7.5L130,28.6z"/>
<g id="Сгруппировать_183" transform="translate(0 21.327)">
	<path id="Контур_3239" d="M7.1,20.6H6l-0.8-2.3H1.9l-0.8,2.3H0l3-7.5h1.3L7.1,20.6z M4.9,17.6l-1.3-3.4H3.5l-1.3,3.4H4.9z"/>
	<path id="Контур_3240" d="M13.9,17.9v1.3c0,0.5-0.2,0.9-0.6,1.1c-0.6,0.3-1.3,0.4-2,0.3H8.6v-7.5h2.7c0.5,0,1,0.1,1.5,0.2
		c0.3,0.1,0.5,0.2,0.7,0.5c0.1,0.2,0.2,0.5,0.2,0.7v1c0,0.3-0.1,0.5-0.3,0.7c-0.2,0.2-0.5,0.3-0.8,0.4v0c0.4,0.1,0.7,0.2,1,0.4
		C13.8,17.3,13.9,17.6,13.9,17.9z M12.6,15.5v-0.9c0-0.2-0.1-0.5-0.3-0.6c-0.3-0.1-0.7-0.2-1-0.2H9.7v2.5h1.6c0.4,0,0.7,0,1-0.2
		C12.5,16,12.6,15.8,12.6,15.5L12.6,15.5z M12.8,19.1V18c0-0.2,0-0.3-0.1-0.5c-0.1-0.1-0.2-0.2-0.4-0.3c-0.1,0-0.3-0.1-0.5-0.1
		c-0.1,0-0.3,0-0.6,0H9.7v2.7h1.6c0.4,0,0.8,0,1.2-0.2C12.7,19.6,12.8,19.3,12.8,19.1L12.8,19.1z"/>
	<path id="Контур_3241" d="M22.2,20.6h-1.2l-0.8-2.3H17l-0.8,2.3h-1.1l3-7.5h1.3L22.2,20.6z M19.9,17.6l-1.3-3.4h-0.1
		l-1.3,3.4H19.9z"/>
	<path id="Контур_3242" d="M28.7,14.6v1.5c0,0.6-0.2,1.1-0.7,1.3c-0.7,0.3-1.4,0.4-2.1,0.4h-1.1v2.7h-1.1v-7.5h2.4
		c0.3,0,0.6,0,0.8,0c0.2,0,0.5,0.1,0.7,0.1c0.2,0,0.4,0.1,0.6,0.2c0.2,0.1,0.3,0.3,0.4,0.4C28.7,14.2,28.7,14.4,28.7,14.6z
		 M27.6,16.1v-1.4c0-0.2,0-0.4-0.2-0.5C27.3,14.1,27.2,14,27,14c-0.2,0-0.3-0.1-0.5-0.1c-0.1,0-0.3,0-0.5,0h-1.3v3.4H26
		c0.4,0,0.8-0.1,1.1-0.2C27.5,16.8,27.7,16.5,27.6,16.1L27.6,16.1z"/>
	<path id="Контур_3243" d="M31.8,20.6h-1.3v-7.5h1v6.2l4-6.2h1.3v7.5h-1v-6.3L31.8,20.6z"/>
	<path id="Контур_3244" d="M40.4,20.6h-1.3v-7.5h1v6.2l4-6.2h1.3v7.5h-1v-6.3L40.4,20.6z M43.8,11.1c0,0.4-0.2,0.8-0.5,1.1
		c-0.6,0.5-1.6,0.5-2.2,0c-0.3-0.3-0.5-0.6-0.5-1.1h1c0.1,0.2,0.2,0.4,0.3,0.6c0.1,0.1,0.3,0.2,0.5,0.2c0.2,0,0.4-0.1,0.5-0.2
		c0.2-0.2,0.3-0.4,0.3-0.6H43.8z"/>
	<path id="Контур_3245" d="M53.9,20.6h-1.1v-3.5h-4v3.5h-1.1v-7.5h1.1v3.2h4v-3.2h1.1V20.6z"/>
	<path id="Контур_3246" d="M56.1,13.2h1.1v3.2h1.1c0.4,0,0.7,0,0.9,0c0.3,0,0.5,0.1,0.8,0.1c0.2,0,0.4,0.1,0.6,0.3
		c0.2,0.1,0.3,0.3,0.4,0.4c0.1,0.2,0.1,0.4,0.1,0.7V19c0,1.1-0.9,1.6-2.6,1.6h-2.4V13.2z M60.1,18.9V18c0-0.3-0.1-0.6-0.3-0.7
		c-0.4-0.1-0.8-0.2-1.2-0.2h-1.3v2.7h1.3c0.2,0,0.4,0,0.5,0c0.2,0,0.3-0.1,0.5-0.1c0.2,0,0.3-0.1,0.5-0.3
		C60,19.3,60.1,19.1,60.1,18.9L60.1,18.9z M63.4,20.6h-1.1v-7.5h1.1V20.6z"/>
	<path id="Контур_3247" d="M70.7,20.6h-5.1v-7.5h5v0.8h-3.9v2.4h3.5v0.8h-3.5v2.7h4V20.6z"/>
	<path id="Контур_3248" d="M76.6,20.6h-1.1v-7.5h1.1v3.2c0.2,0,0.4,0,0.6-0.1c0.2-0.1,0.3-0.3,0.4-0.5l1-1.6
		c0.2-0.3,0.5-0.7,0.8-0.9c0.4-0.1,0.7-0.2,1.1-0.2h0.5v0.8h-0.6c-0.2,0-0.4,0.1-0.5,0.2c-0.2,0.2-0.4,0.4-0.5,0.6l-0.7,1.2
		c-0.1,0.2-0.3,0.4-0.4,0.6c-0.2,0.1-0.3,0.2-0.5,0.3c0.7,0.4,1.2,0.9,1.7,1.5l2.1,2.3h-1.4l-2.1-2.3c-0.3-0.3-0.6-0.7-0.9-0.9
		c-0.2-0.1-0.4-0.2-0.6-0.2L76.6,20.6z"/>
	<path id="Контур_3249" d="M88.8,15.2v3.5c0,0.4-0.1,0.7-0.3,1c-0.2,0.3-0.5,0.5-0.8,0.6c-0.3,0.1-0.7,0.2-1,0.3
		c-0.4,0.1-0.7,0.1-1.1,0.1c-2.1,0-3.1-0.7-3.1-2v-3.5c0-1.4,1-2.1,3.1-2.1C87.7,13,88.8,13.8,88.8,15.2z M87.7,18.7v-3.5
		c0-0.9-0.7-1.4-2.1-1.4c-0.3,0-0.5,0-0.8,0.1c-0.2,0-0.4,0.1-0.6,0.2c-0.2,0.1-0.4,0.2-0.5,0.4c-0.1,0.2-0.2,0.5-0.2,0.7v3.5
		c0,0.9,0.7,1.3,2.1,1.3C87,20,87.7,19.6,87.7,18.7z"/>
	<path id="Контур_3250" d="M98.7,20.6h-1v-6.3h-0.1l-2.4,6.3h-1l-2.5-6.3h-0.1v6.3h-1v-7.5h1.7l2.4,6.2l0,0l2.3-6.2h1.6
		L98.7,20.6z"/>
	<path id="Контур_3251" d="M102.3,20.6h-1.3v-7.5h1v6.2l4-6.2h1.3v7.5h-1v-6.3L102.3,20.6z"/>
	<path id="Контур_3252" d="M114.5,20.5c-0.7,0.1-1.4,0.2-2.1,0.2c-2.1,0-3.1-0.7-3.1-2v-3.5c0-1.4,1-2.1,3.1-2.1
		c0.7,0,1.4,0.1,2,0.2v0.8c-0.7-0.2-1.3-0.3-2-0.3c-0.3,0-0.5,0-0.8,0.1c-0.2,0-0.4,0.1-0.7,0.2c-0.2,0.1-0.4,0.2-0.5,0.4
		c-0.1,0.2-0.2,0.5-0.2,0.7v3.5c0,0.9,0.7,1.3,2.1,1.3c0.7,0,1.4-0.1,2-0.3L114.5,20.5z"/>
	<path id="Контур_3253" d="M121.3,20.5c-0.7,0.1-1.4,0.2-2.1,0.2c-2.1,0-3.1-0.7-3.1-2v-3.5c0-1.4,1-2.1,3.1-2.1
		c0.7,0,1.4,0.1,2,0.2v0.8c-0.7-0.2-1.3-0.3-2-0.3c-0.3,0-0.5,0-0.8,0.1c-0.2,0-0.4,0.1-0.7,0.2c-0.2,0.1-0.4,0.2-0.5,0.4
		c-0.1,0.2-0.2,0.5-0.2,0.7v3.5c0,0.9,0.7,1.3,2.1,1.3c0.7,0,1.4-0.1,2-0.3L121.3,20.5z"/>
	<path id="Контур_3254" d="M129.4,20.6h-1.2l-0.8-2.3h-3.2l-0.8,2.3h-1.1l3-7.5h1.3L129.4,20.6z M127.1,17.6l-1.3-3.4h-0.1
		l-1.3,3.4H127.1z"/>
	<path id="Контур_3255" d="M135.9,14.6v1.5c0,0.6-0.2,1.1-0.7,1.3c-0.7,0.3-1.4,0.4-2.1,0.4h-1.1v2.7h-1.1v-7.5h2.4
		c0.3,0,0.6,0,0.8,0c0.2,0,0.5,0.1,0.7,0.1c0.2,0,0.4,0.1,0.6,0.2c0.2,0.1,0.3,0.3,0.4,0.4C135.8,14.2,135.9,14.4,135.9,14.6z
		 M134.8,16.1v-1.4c0-0.2,0-0.4-0.2-0.5c-0.1-0.1-0.3-0.2-0.5-0.3c-0.2,0-0.3-0.1-0.5-0.1c-0.1,0-0.3,0-0.5,0h-1.3v3.4h1.3
		c0.4,0,0.8-0.1,1.1-0.2C134.6,16.8,134.8,16.5,134.8,16.1L134.8,16.1z"/>
	<path id="Контур_3256" d="M137.6,13.2h1.1v3.2h1.1c0.4,0,0.7,0,0.9,0c0.3,0,0.5,0.1,0.8,0.1c0.2,0,0.4,0.1,0.6,0.3
		c0.2,0.1,0.3,0.3,0.4,0.4c0.1,0.2,0.1,0.4,0.1,0.7V19c0,1.1-0.9,1.6-2.6,1.6h-2.4L137.6,13.2z M141.6,18.9V18
		c0-0.3-0.1-0.6-0.3-0.7c-0.4-0.1-0.8-0.2-1.2-0.2h-1.3v2.7h1.3c0.2,0,0.4,0,0.5,0c0.2,0,0.3-0.1,0.5-0.1c0.2,0,0.3-0.1,0.5-0.3
		C141.6,19.3,141.6,19.1,141.6,18.9z M145,20.6h-1.1v-7.5h1.1V20.6z"/>
</g>
</svg>
